<svg xmlns="http://www.w3.org/2000/svg" xmlns:xlink="http://www.w3.org/1999/xlink" width="500" zoomAndPan="magnify" viewBox="0 0 375 374.999991" height="500" preserveAspectRatio="xMidYMid meet" version="1.0"><defs><g/><clipPath id="ee40a80abe"><path d="M 5.125 8.25 L 363.625 8.25 L 363.625 366.75 L 5.125 366.75 Z M 5.125 8.25 " clip-rule="nonzero"/></clipPath><clipPath id="17a1731a3e"><path d="M 184.375 8.25 C 85.378906 8.25 5.125 88.503906 5.125 187.5 C 5.125 286.496094 85.378906 366.75 184.375 366.75 C 283.371094 366.75 363.625 286.496094 363.625 187.5 C 363.625 88.503906 283.371094 8.25 184.375 8.25 Z M 184.375 8.25 " clip-rule="nonzero"/></clipPath><clipPath id="57d03d9d3f"><path d="M 0.125 0.25 L 358.625 0.25 L 358.625 358.75 L 0.125 358.75 Z M 0.125 0.25 " clip-rule="nonzero"/></clipPath><clipPath id="4d9cff0785"><path d="M 179.375 0.25 C 80.378906 0.25 0.125 80.503906 0.125 179.5 C 0.125 278.496094 80.378906 358.75 179.375 358.75 C 278.371094 358.75 358.625 278.496094 358.625 179.5 C 358.625 80.503906 278.371094 0.25 179.375 0.25 Z M 179.375 0.25 " clip-rule="nonzero"/></clipPath><clipPath id="8b064b7d20"><rect x="0" width="359" y="0" height="359"/></clipPath><clipPath id="3a1516e9f7"><path d="M 0.71875 0.398438 L 326.640625 0.398438 L 326.640625 178.480469 L 0.71875 178.480469 Z M 0.71875 0.398438 " clip-rule="nonzero"/></clipPath><clipPath id="6869a72620"><rect x="0" width="327" y="0" height="179"/></clipPath><clipPath id="072e11f919"><path d="M 17.695312 45.398438 L 69.726562 45.398438 L 69.726562 94.546875 L 17.695312 94.546875 Z M 17.695312 45.398438 " clip-rule="nonzero"/></clipPath><clipPath id="151e4e25e1"><path d="M 43.644531 45.398438 C 29.316406 45.398438 17.695312 56.402344 17.695312 69.972656 C 17.695312 83.546875 29.316406 94.546875 43.644531 94.546875 C 57.976562 94.546875 69.59375 83.546875 69.59375 69.972656 C 69.59375 56.402344 57.976562 45.398438 43.644531 45.398438 Z M 43.644531 45.398438 " clip-rule="nonzero"/></clipPath><clipPath id="7038f4ab71"><path d="M 0.695312 0.398438 L 52.601562 0.398438 L 52.601562 49.546875 L 0.695312 49.546875 Z M 0.695312 0.398438 " clip-rule="nonzero"/></clipPath><clipPath id="11b0271a2e"><path d="M 26.644531 0.398438 C 12.316406 0.398438 0.695312 11.402344 0.695312 24.972656 C 0.695312 38.546875 12.316406 49.546875 26.644531 49.546875 C 40.976562 49.546875 52.59375 38.546875 52.59375 24.972656 C 52.59375 11.402344 40.976562 0.398438 26.644531 0.398438 Z M 26.644531 0.398438 " clip-rule="nonzero"/></clipPath><clipPath id="37b8b46cd7"><rect x="0" width="53" y="0" height="50"/></clipPath><clipPath id="590d152c39"><path d="M 20.457031 74.464844 L 43.703125 74.464844 L 43.703125 96.425781 L 20.457031 96.425781 Z M 20.457031 74.464844 " clip-rule="nonzero"/></clipPath><clipPath id="2d1db8ed97"><path d="M 32.050781 74.464844 C 25.648438 74.464844 20.457031 79.382812 20.457031 85.445312 C 20.457031 91.507812 25.648438 96.425781 32.050781 96.425781 C 38.457031 96.425781 43.644531 91.507812 43.644531 85.445312 C 43.644531 79.382812 38.457031 74.464844 32.050781 74.464844 Z M 32.050781 74.464844 " clip-rule="nonzero"/></clipPath><clipPath id="4df0bb1bd0"><path d="M 0.457031 0.464844 L 23.679688 0.464844 L 23.679688 22.425781 L 0.457031 22.425781 Z M 0.457031 0.464844 " clip-rule="nonzero"/></clipPath><clipPath id="f4e79d492d"><path d="M 12.050781 0.464844 C 5.648438 0.464844 0.457031 5.382812 0.457031 11.445312 C 0.457031 17.507812 5.648438 22.425781 12.050781 22.425781 C 18.457031 22.425781 23.644531 17.507812 23.644531 11.445312 C 23.644531 5.382812 18.457031 0.464844 12.050781 0.464844 Z M 12.050781 0.464844 " clip-rule="nonzero"/></clipPath><clipPath id="121c8a048c"><rect x="0" width="24" y="0" height="23"/></clipPath><clipPath id="8e94e115a2"><path d="M 25.191406 80.808594 L 66.847656 80.808594 L 66.847656 88.507812 L 25.191406 88.507812 Z M 25.191406 80.808594 " clip-rule="nonzero"/></clipPath><clipPath id="198eb75df2"><path d="M 29.039062 80.808594 L 62.996094 80.808594 C 64.015625 80.808594 64.996094 81.214844 65.71875 81.933594 C 66.441406 82.65625 66.847656 83.636719 66.847656 84.65625 C 66.847656 85.679688 66.441406 86.65625 65.71875 87.378906 C 64.996094 88.101562 64.015625 88.507812 62.996094 88.507812 L 29.039062 88.507812 C 28.019531 88.507812 27.039062 88.101562 26.316406 87.378906 C 25.597656 86.65625 25.191406 85.679688 25.191406 84.65625 C 25.191406 83.636719 25.597656 82.65625 26.316406 81.933594 C 27.039062 81.214844 28.019531 80.808594 29.039062 80.808594 Z M 29.039062 80.808594 " clip-rule="nonzero"/></clipPath><clipPath id="0b2c6f026c"><path d="M 0.191406 0.808594 L 41.847656 0.808594 L 41.847656 8.507812 L 0.191406 8.507812 Z M 0.191406 0.808594 " clip-rule="nonzero"/></clipPath><clipPath id="2e0c0f3107"><path d="M 4.039062 0.808594 L 37.996094 0.808594 C 39.015625 0.808594 39.996094 1.214844 40.71875 1.933594 C 41.441406 2.65625 41.847656 3.636719 41.847656 4.65625 C 41.847656 5.679688 41.441406 6.65625 40.71875 7.378906 C 39.996094 8.101562 39.015625 8.507812 37.996094 8.507812 L 4.039062 8.507812 C 3.019531 8.507812 2.039062 8.101562 1.316406 7.378906 C 0.597656 6.65625 0.191406 5.679688 0.191406 4.65625 C 0.191406 3.636719 0.597656 2.65625 1.316406 1.933594 C 2.039062 1.214844 3.019531 0.808594 4.039062 0.808594 Z M 4.039062 0.808594 " clip-rule="nonzero"/></clipPath><clipPath id="7beba1446a"><rect x="0" width="42" y="0" height="9"/></clipPath><clipPath id="aeab770802"><rect x="0" width="327" y="0" height="179"/></clipPath><clipPath id="019ad8a619"><path d="M 50.242188 153 L 92 153 L 92 184 L 50.242188 184 Z M 50.242188 153 " clip-rule="nonzero"/></clipPath><clipPath id="8424c21a1d"><path d="M 50.242188 158 L 89 158 L 89 184 L 50.242188 184 Z M 50.242188 158 " clip-rule="nonzero"/></clipPath><clipPath id="323956c57e"><path d="M 50.242188 152.285156 L 92 152.285156 L 92 184.535156 L 50.242188 184.535156 Z M 50.242188 152.285156 " clip-rule="nonzero"/></clipPath></defs><g clip-path="url(#ee40a80abe)"><g clip-path="url(#17a1731a3e)"><g transform="matrix(1, 0, 0, 1, 5, 8)"><g clip-path="url(#8b064b7d20)"><g clip-path="url(#57d03d9d3f)"><g clip-path="url(#4d9cff0785)"><path fill="#8d1819" d="M 0.125 0.25 L 358.625 0.25 L 358.625 358.75 L 0.125 358.75 Z M 0.125 0.25 " fill-opacity="1" fill-rule="nonzero"/></g></g></g></g></g></g><g transform="matrix(1, 0, 0, 1, 24, 98)"><g clip-path="url(#aeab770802)"><g clip-path="url(#3a1516e9f7)"><g><g clip-path="url(#6869a72620)"><g fill="#ffffff" fill-opacity="1"><g transform="translate(0.86657, 143.762251)"><g><path d="M 82.359375 -75.421875 C 82.359375 -65.578125 78.738281 -58.113281 71.5 -53.03125 C 64.269531 -47.945312 54.445312 -45.40625 42.03125 -45.40625 L 28.78125 -45.40625 L 28.78125 0 L 13.859375 0 L 13.859375 -101.90625 L 46.953125 -101.90625 C 57.316406 -101.90625 65.804688 -99.546875 72.421875 -94.828125 C 79.046875 -90.109375 82.359375 -83.640625 82.359375 -75.421875 Z M 28.78125 -49.875 L 42.484375 -49.875 C 47.304688 -49.875 51.4375 -50.796875 54.875 -52.640625 C 58.3125 -54.492188 60.800781 -56.859375 62.34375 -59.734375 C 65.113281 -64.859375 66.5 -69.832031 66.5 -74.65625 C 66.5 -77.019531 65.882812 -79.84375 64.65625 -83.125 C 62.1875 -89.894531 57.101562 -94.304688 49.40625 -96.359375 C 42.019531 -96.359375 35.144531 -95.488281 28.78125 -93.75 Z M 28.78125 -49.875 "/></g></g></g><g fill="#ffffff" fill-opacity="1"><g transform="translate(84.9121, 143.762251)"><g><path d="M 89.59375 -101.90625 L 89.59375 -39.40625 C 89.59375 -29.863281 88.566406 -22.679688 86.515625 -17.859375 C 85.585938 -15.703125 84.125 -13.265625 82.125 -10.546875 C 80.125 -7.828125 77.789062 -5.644531 75.125 -4 C 68.351562 -0.101562 59.882812 1.84375 49.71875 1.84375 C 24.269531 1.84375 11.546875 -11.238281 11.546875 -37.40625 L 11.546875 -101.90625 L 27.25 -101.90625 L 27.25 -36.171875 C 27.25 -33.203125 27.300781 -30.789062 27.40625 -28.9375 C 27.507812 -27.09375 28.046875 -24.476562 29.015625 -21.09375 C 29.992188 -17.707031 31.328125 -14.988281 33.015625 -12.9375 C 34.710938 -10.882812 37.378906 -9.035156 41.015625 -7.390625 C 44.660156 -5.742188 49 -4.921875 54.03125 -4.921875 C 73.21875 -4.921875 82.8125 -15.1875 82.8125 -35.71875 L 82.8125 -101.90625 Z M 89.59375 -101.90625 "/></g></g></g><g fill="#ffffff" fill-opacity="1"><g transform="translate(186.043821, 143.762251)"><g><path d="M 28.9375 -48.640625 L 28.9375 0 L 13.859375 0 L 13.859375 -101.90625 L 47.109375 -101.90625 C 57.472656 -101.90625 65.960938 -99.59375 72.578125 -94.96875 C 79.203125 -90.351562 82.515625 -84.273438 82.515625 -76.734375 C 82.515625 -69.191406 79.867188 -63.238281 74.578125 -58.875 C 69.296875 -54.519531 62.140625 -51.519531 53.109375 -49.875 L 94.359375 0 L 76.5 2.15625 L 40.796875 -48.640625 Z M 28.9375 -53.265625 L 38.796875 -53.265625 C 57.265625 -53.265625 66.5 -60.550781 66.5 -75.125 C 66.5 -77.582031 65.882812 -80.351562 64.65625 -83.4375 C 62.289062 -89.894531 57.257812 -94.15625 49.5625 -96.21875 C 42.582031 -96.21875 35.707031 -95.34375 28.9375 -93.59375 Z M 28.9375 -53.265625 "/></g></g></g><g fill="#ffffff" fill-opacity="1"><g transform="translate(284.250865, 143.762251)"><g><path d="M 28.015625 -101.90625 L 28.015625 0 L 13.859375 0 L 13.859375 -101.90625 Z M 28.015625 -101.90625 "/></g></g></g></g></g></g><g clip-path="url(#072e11f919)"><g clip-path="url(#151e4e25e1)"><g transform="matrix(1, 0, 0, 1, 17, 45)"><g clip-path="url(#37b8b46cd7)"><g clip-path="url(#7038f4ab71)"><g clip-path="url(#11b0271a2e)"><path fill="#ffffff" d="M 0.695312 0.398438 L 52.535156 0.398438 L 52.535156 49.546875 L 0.695312 49.546875 Z M 0.695312 0.398438 " fill-opacity="1" fill-rule="nonzero"/></g></g></g></g></g></g><g clip-path="url(#590d152c39)"><g clip-path="url(#2d1db8ed97)"><g transform="matrix(1, 0, 0, 1, 20, 74)"><g clip-path="url(#121c8a048c)"><g clip-path="url(#4df0bb1bd0)"><g clip-path="url(#f4e79d492d)"><path fill="#ffffff" d="M 0.457031 0.464844 L 23.617188 0.464844 L 23.617188 22.425781 L 0.457031 22.425781 Z M 0.457031 0.464844 " fill-opacity="1" fill-rule="nonzero"/></g></g></g></g></g></g><g clip-path="url(#8e94e115a2)"><g clip-path="url(#198eb75df2)"><g transform="matrix(1, 0, 0, 1, 25, 80)"><g clip-path="url(#7beba1446a)"><g clip-path="url(#0b2c6f026c)"><g clip-path="url(#2e0c0f3107)"><path fill="#ffffff" d="M 0.191406 0.808594 L 41.847656 0.808594 L 41.847656 8.507812 L 0.191406 8.507812 Z M 0.191406 0.808594 " fill-opacity="1" fill-rule="nonzero"/></g></g></g></g></g></g></g></g><g clip-path="url(#019ad8a619)"><path fill="#8d1819" d="M 82.105469 176.652344 C 85.097656 176.3125 89.257812 173.71875 91.261719 168.558594 C 92.460938 165.476562 91.101562 161.925781 88.742188 159.75 C 87.285156 158.40625 86.300781 157.730469 83.597656 157.730469 C 81.613281 157.738281 79.132812 158.058594 77.074219 157.671875 C 75.894531 156.511719 74.703125 155.34375 73.296875 154.460938 C 71.894531 153.578125 70.257812 152.972656 68.597656 153.066406 C 66.65625 153.171875 64.761719 153.902344 63.386719 155.257812 C 62.011719 156.613281 62.617188 155.789062 61.609375 157.433594 C 57.007812 155.457031 53.46875 156.710938 51.816406 159.667969 C 50.324219 162.339844 50.683594 165.761719 51.792969 168.851562 C 52.546875 170.949219 56.363281 173.476562 58.371094 174.847656 C 58.242188 178.214844 58.308594 178.625 58.359375 181.992188 C 62.375 180.367188 67.992188 179.269531 72.75 180.214844 C 78.152344 181.289062 82.023438 183.710938 82.023438 183.710938 C 82.023438 183.710938 82.097656 176.652344 82.105469 176.652344 Z M 82.105469 176.652344 " fill-opacity="1" fill-rule="nonzero"/></g><path fill="#8d1819" d="M 64.601562 155.511719 C 63.640625 156.1875 62.996094 157.199219 62.617188 158.265625 C 62.238281 159.335938 61.578125 161.210938 61.445312 163.855469 C 62.941406 159.632812 65.363281 157.054688 68.527344 155.929688 C 69.710938 155.511719 71.054688 155.308594 72.214844 155.773438 C 69.800781 153.074219 66.023438 154.507812 64.601562 155.511719 Z M 64.601562 155.511719 " fill-opacity="1" fill-rule="nonzero"/><path fill="#8d1819" d="M 58.253906 158.636719 C 57.089844 158.5 55.898438 158.90625 55 159.613281 C 54.101562 160.320312 53.484375 161.304688 53.125 162.351562 C 52.574219 163.957031 52.519531 165.097656 52.917969 166.554688 C 52.046875 165.3125 51.726562 163.683594 52.035156 161.996094 C 52.28125 160.640625 53.066406 159.328125 54.332031 158.636719 C 55.566406 157.960938 57.191406 157.964844 58.253906 158.636719 Z M 58.253906 158.636719 " fill-opacity="1" fill-rule="nonzero"/><path fill="#8d1819" d="M 80.363281 160.429688 C 81.683594 160.578125 83.003906 160.289062 84.324219 160.140625 C 85.640625 159.996094 87.050781 160.003906 88.191406 160.679688 C 88.867188 161.082031 89.402344 161.691406 89.808594 162.363281 C 91.039062 164.410156 91.058594 167.121094 89.859375 169.183594 C 90.113281 167.3125 89.671875 165.34375 88.574219 163.8125 C 87.476562 162.28125 85.714844 161.21875 83.835938 161.046875 C 82.769531 160.953125 81.636719 161.125 80.363281 160.429688 Z M 80.363281 160.429688 " fill-opacity="1" fill-rule="nonzero"/><path fill="#8d1819" d="M 60.414062 180.875 C 60.691406 178.09375 60.480469 175.289062 60.269531 172.503906 C 60.78125 174.195312 61.289062 175.886719 61.796875 177.578125 C 62.128906 178.683594 62.539062 179.886719 63.53125 180.476562 C 62.386719 180.128906 61.070312 180.410156 60.164062 181.191406 C 60.210938 181.167969 60.382812 181.1875 60.414062 180.875 Z M 60.414062 180.875 " fill-opacity="1" fill-rule="nonzero"/><g clip-path="url(#8424c21a1d)"><path fill="#8d1819" d="M 82.28125 170.566406 C 82.066406 170.347656 81.757812 170.054688 81.734375 170.035156 C 84.742188 168.386719 85.777344 165.003906 83.640625 161.710938 C 82.972656 164.558594 79.703125 167.851562 78.320312 168.382812 C 77.851562 168.171875 77.839844 167.984375 77.371094 167.800781 C 78.328125 165.910156 79.277344 160.933594 75.570312 158.070312 C 75.570312 162.972656 72.40625 167.386719 72.40625 167.386719 C 72.40625 167.386719 70.074219 167.003906 67.558594 167.425781 C 62.089844 168.351562 60.4375 169.746094 58.933594 170.734375 C 56.6875 169.191406 55.417969 167.289062 55.089844 162.34375 C 52.3125 166.167969 53.820312 169.09375 55.722656 171.195312 C 54.542969 170.628906 52.8125 168.082031 52.011719 164.933594 C 51.472656 162.804688 51.625 160.464844 52.683594 158.53125 C 51.070312 160.070312 50.34375 162.355469 50.484375 164.5625 C 50.625 166.773438 51.589844 168.894531 53.035156 170.582031 C 54.480469 172.273438 56.386719 173.546875 58.445312 174.421875 C 58.355469 173.738281 58.417969 173.644531 58.347656 173.09375 C 59.292969 172.382812 60.082031 171.972656 61.085938 171.691406 C 61.921875 171.457031 62.773438 171.269531 63.636719 171.136719 C 69.328125 170.636719 73.769531 171.839844 75.59375 173.648438 C 78.222656 176.242188 78.320312 177.980469 77.78125 181.613281 C 79.164062 182.289062 81.722656 183.640625 81.753906 183.480469 C 82.046875 182.058594 82.0625 177.546875 82.160156 176.46875 C 87.359375 174.894531 89.667969 169.707031 88.339844 165.089844 C 86.546875 167.996094 83.730469 170.046875 82.28125 170.566406 Z M 82.28125 170.566406 " fill-opacity="1" fill-rule="nonzero"/></g><path fill="#8d1819" d="M 78.175781 159.035156 C 81.832031 160.359375 85.898438 158.363281 88.800781 159.410156 C 88.410156 158.863281 86.167969 157.84375 84.070312 157.84375 C 80.824219 157.84375 78.222656 158.347656 75.015625 156.636719 C 75.644531 157.808594 76.933594 158.589844 78.175781 159.035156 Z M 78.175781 159.035156 " fill-opacity="1" fill-rule="nonzero"/><path fill="#8d1819" d="M 61.609375 157.433594 C 61.234375 157.484375 61.085938 157.292969 60.894531 157.359375 C 59.25 158.5 57.050781 162.75 61.835938 166.078125 C 60.691406 163.757812 60.003906 160.25 61.609375 157.433594 Z M 61.609375 157.433594 " fill-opacity="1" fill-rule="nonzero"/><path fill="#ffffff" d="M 76.21875 159.34375 C 76.367188 160.65625 76.183594 161.710938 75.875 162.707031 C 75.640625 163.46875 75.355469 164.214844 75.042969 164.945312 C 74.746094 165.617188 74.421875 166.273438 74.0625 166.910156 C 73.839844 167.320312 73.621094 167.730469 73.375 168.125 C 73.339844 168.179688 73.308594 168.234375 73.273438 168.292969 C 73.320312 168.257812 73.363281 168.222656 73.410156 168.1875 C 73.765625 167.925781 74.097656 167.628906 74.417969 167.316406 C 75.214844 166.539062 75.929688 165.628906 76.371094 164.566406 C 76.503906 164.242188 76.597656 163.902344 76.671875 163.558594 C 76.800781 163.003906 76.855469 162.4375 76.839844 161.875 C 76.8125 160.984375 76.574219 160.132812 76.21875 159.34375 Z M 76.21875 159.34375 " fill-opacity="1" fill-rule="nonzero"/><path fill="#ffffff" d="M 83.640625 163.816406 C 82.3125 167.003906 80.996094 168.003906 78.90625 169.414062 C 81.519531 169.121094 83.875 167.757812 83.640625 163.816406 Z M 83.640625 163.816406 " fill-opacity="1" fill-rule="nonzero"/><path fill="#ffffff" d="M 54.585938 165.191406 C 53.175781 167.769531 55.574219 171.207031 58.132812 171.804688 C 56.703125 170.433594 54.585938 167.867188 54.585938 165.191406 Z M 54.585938 165.191406 " fill-opacity="1" fill-rule="nonzero"/><g clip-path="url(#323956c57e)"><path fill="#ffffff" d="M 90.808594 161.132812 C 90.617188 160.730469 90.371094 160.355469 90.113281 159.996094 C 89.75 159.484375 88.667969 158.082031 86.503906 157.347656 C 85.472656 156.996094 84.375 156.945312 83.300781 156.972656 C 82.480469 156.984375 81.660156 157.019531 80.839844 157.046875 C 79.628906 157.078125 78.925781 157.128906 77.828125 156.960938 C 77.480469 156.902344 77.125 156.832031 76.816406 156.652344 C 76.578125 156.496094 76.375 156.292969 76.164062 156.101562 C 75.890625 155.84375 75.621094 155.574219 75.34375 155.316406 C 74.316406 154.367188 73.238281 153.4375 71.960938 152.835938 C 70.914062 152.355469 69.734375 152.191406 68.589844 152.332031 C 67.113281 152.511719 65.640625 152.957031 64.402344 153.792969 C 63.738281 154.242188 63.164062 154.8125 62.660156 155.429688 C 62.289062 155.875 61.90625 156.339844 61.574219 156.820312 C 61.230469 156.621094 60.871094 156.449219 60.5 156.304688 C 60.113281 156.148438 59.707031 156.019531 59.296875 155.933594 C 58.398438 155.757812 57.46875 155.675781 56.554688 155.742188 C 56 155.792969 55.460938 155.953125 54.941406 156.160156 C 54.410156 156.378906 53.894531 156.636719 53.4375 156.980469 C 53.144531 157.203125 52.867188 157.449219 52.617188 157.71875 C 52.277344 158.101562 51.976562 158.523438 51.703125 158.96875 C 51.398438 159.476562 51.121094 160.015625 50.914062 160.574219 C 50.820312 160.839844 50.730469 161.109375 50.652344 161.378906 C 50.527344 161.867188 50.433594 162.363281 50.367188 162.863281 C 50.257812 163.761719 50.203125 164.667969 50.289062 165.570312 C 50.328125 165.976562 50.386719 166.378906 50.476562 166.777344 C 50.5625 167.152344 50.679688 167.527344 50.804688 167.890625 C 51.074219 168.691406 51.445312 169.449219 51.898438 170.160156 C 52.277344 170.746094 52.699219 171.304688 53.1875 171.804688 C 53.777344 172.417969 54.402344 173.003906 55.089844 173.507812 C 55.5 173.808594 55.9375 174.0625 56.382812 174.308594 C 56.769531 174.519531 57.410156 174.769531 57.832031 174.90625 C 57.882812 174.921875 57.816406 177.828125 57.867188 179.542969 C 57.890625 180.242188 57.9375 182.429688 57.976562 182.792969 C 58.75 182.433594 60.152344 181.902344 62.0625 181.414062 C 67.828125 179.933594 74.789062 180.316406 82.390625 184.828125 C 82.480469 183.039062 82.46875 179.90625 82.445312 177.253906 C 83.949219 177.070312 86.707031 175.664062 87.777344 174.578125 C 88.214844 174.136719 88.695312 173.742188 89.097656 173.269531 C 89.460938 172.84375 89.78125 172.382812 90.085938 171.914062 C 90.449219 171.347656 90.761719 170.75 91.042969 170.132812 C 91.234375 169.667969 91.394531 169.1875 91.539062 168.703125 C 91.933594 167.136719 92.308594 164.3125 90.808594 161.132812 Z M 90.707031 168.871094 C 90.621094 169.144531 90.511719 169.414062 90.394531 169.675781 C 90.359375 169.753906 90.320312 169.832031 90.285156 169.910156 C 90.257812 169.960938 90.230469 170.015625 90.203125 170.070312 C 90.09375 170.273438 89.984375 170.480469 89.863281 170.679688 C 89.589844 171.140625 89.191406 171.695312 89.152344 171.734375 C 88.851562 172.128906 88.519531 172.496094 88.164062 172.835938 C 87.914062 173.082031 87.570312 173.386719 87.023438 173.777344 C 83.859375 176.039062 82.488281 175.804688 82.445312 175.824219 C 82.433594 174.960938 82.429688 174.203125 82.429688 173.636719 C 82.429688 173.320312 83.691406 173.246094 85.550781 171.792969 C 85.863281 171.546875 86.167969 171.292969 86.4375 171.003906 C 87.082031 170.261719 88.023438 169.121094 88.09375 167.304688 C 87.105469 169.097656 85.945312 170.242188 84.730469 170.964844 C 84.417969 171.148438 84.09375 171.316406 83.757812 171.46875 C 83.449219 171.601562 83.355469 171.65625 82.839844 171.8125 C 82.554688 171.886719 82.265625 171.9375 81.976562 171.992188 C 81.835938 172.015625 81.699219 172.039062 81.558594 172.0625 C 81.53125 172.066406 81.507812 172.070312 81.484375 172.078125 C 81.3125 171.933594 81.140625 171.796875 80.960938 171.664062 C 79.949219 170.910156 78.847656 170.265625 77.660156 169.808594 C 76.476562 169.339844 75.238281 169.015625 73.984375 168.792969 C 70.988281 168.257812 64.664062 167.640625 60.105469 170.984375 C 64.417969 169.710938 66.753906 169.558594 71.085938 169.953125 C 73.585938 170.175781 76.101562 170.683594 78.351562 171.804688 C 79.144531 172.199219 80.890625 173.332031 81.308594 173.648438 C 81.339844 174.242188 81.195312 182.421875 81.191406 182.433594 C 81.167969 182.4375 72.882812 177 61.460938 180.152344 C 60.902344 180.304688 60.347656 180.464844 59.8125 180.679688 C 59.480469 180.804688 59.167969 180.964844 58.851562 181.125 C 58.742188 179.320312 58.777344 174.3125 58.46875 171.734375 C 58.457031 171.738281 58.199219 172.664062 57.992188 173.519531 C 57.882812 173.484375 57.160156 173.144531 56.886719 172.988281 C 56.542969 172.792969 56.433594 172.742188 55.988281 172.457031 C 55.671875 172.25 55.371094 172.019531 55.078125 171.777344 C 54.289062 171.105469 53.542969 170.378906 52.921875 169.546875 C 52.683594 169.222656 52.324219 168.671875 52.011719 168.054688 C 51.796875 167.613281 51.613281 167.15625 51.453125 166.691406 C 51.371094 166.425781 51.292969 166.15625 51.234375 165.886719 C 51.167969 165.601562 51.125 165.3125 51.085938 165.023438 C 51.054688 164.652344 51.039062 164.28125 51.046875 163.914062 C 51.066406 163.566406 51.050781 163.644531 51.109375 163.027344 C 51.140625 162.707031 51.1875 162.382812 51.246094 162.0625 C 51.257812 162 51.273438 161.9375 51.285156 161.871094 C 51.347656 161.617188 51.414062 161.367188 51.5 161.117188 C 51.59375 160.863281 51.703125 160.613281 51.824219 160.367188 C 52.167969 159.71875 52.484375 159.269531 52.742188 158.972656 C 52.851562 158.84375 52.96875 158.714844 53.09375 158.597656 C 53.117188 158.578125 53.140625 158.554688 53.164062 158.535156 C 53.25 158.460938 53.339844 158.386719 53.429688 158.316406 C 53.707031 158.109375 54.003906 157.925781 54.316406 157.769531 C 54.527344 157.65625 55.191406 157.378906 55.746094 157.253906 C 56.109375 157.171875 56.488281 157.136719 56.863281 157.132812 C 57.519531 157.136719 58.175781 157.207031 58.824219 157.328125 C 59.253906 157.410156 59.675781 157.542969 60.082031 157.703125 C 60.351562 157.808594 60.613281 157.925781 60.871094 158.058594 C 60.363281 159.09375 59.039062 164.117188 61.859375 166.101562 C 60.808594 163.503906 60.667969 160.3125 61.859375 158.070312 C 62.378906 157.089844 62.664062 156.84375 63.269531 156.164062 C 63.480469 155.929688 63.707031 155.703125 63.953125 155.496094 C 64.183594 155.3125 64.425781 155.140625 64.675781 154.992188 C 65.585938 154.457031 66.167969 154.242188 67.3125 153.984375 C 68.253906 153.789062 68.996094 153.710938 69.722656 153.808594 C 71.132812 154.003906 72.125 154.566406 73.078125 155.292969 C 73.789062 155.832031 74.4375 156.4375 75.082031 157.046875 C 75.5 157.429688 75.875 157.871094 76.378906 158.148438 C 77.078125 158.503906 78.171875 158.546875 78.953125 158.5625 C 80.214844 158.570312 81.472656 158.484375 82.734375 158.457031 C 83.777344 158.4375 84.335938 158.414062 85.414062 158.644531 C 88.585938 159.324219 89.945312 161.878906 90.460938 163.171875 C 91.324219 165.347656 90.992188 167.960938 90.707031 168.871094 Z M 90.707031 168.871094 " fill-opacity="1" fill-rule="nonzero"/></g></svg>